<?xml version="1.0" encoding="UTF-8" standalone="no"?>
<svg
   xmlns:dc="http://purl.org/dc/elements/1.1/"
   xmlns:cc="http://creativecommons.org/ns#"
   xmlns:rdf="http://www.w3.org/1999/02/22-rdf-syntax-ns#"
   xmlns:svg="http://www.w3.org/2000/svg"
   xmlns="http://www.w3.org/2000/svg"
   viewBox="0 0 800 800"
   height="800"
   width="800"
   id="svg863"
   version="1.1">
  <metadata
     id="metadata869">
    <rdf:RDF>
      <cc:Work
         rdf:about="">
        <dc:format>image/svg+xml</dc:format>
        <dc:type
           rdf:resource="http://purl.org/dc/dcmitype/StillImage" />
        <dc:title></dc:title>
      </cc:Work>
    </rdf:RDF>
  </metadata>
  <defs
     id="defs867" />
  <g
     id="g871">
    <path
       d="m 256.42188,113.42773 c -55.22847,0 -100,44.77153 -100,100 v 48.00586 c 5e-4,0.937 0.0142,1.87394 0.041,2.81055 h -27.35937 c -44.182782,0 -80.000004,35.81722 -80.000004,80 v 168.92969 c 0,44.18278 35.817222,80 80.000004,80 H 501.4082 l 248.83203,90.61914 0.005,-170.0166 c 0.006,-0.40166 0.005,-169.53223 0.005,-169.53223 0,-44.18278 -35.81722,-80 -80,-80 h -29.0957 c 0.0268,-0.93661 0.0405,-1.87355 0.041,-2.81055 v -48.00586 c 0,-55.22847 -44.77153,-100 -100,-100 z m -102.8086,200.56836 h 107.77344 c 33.13708,0 60,26.86292 60,60 v 110.00782 c 0,33.13708 -26.86292,60 -60,60 H 153.61328 c -33.13708,0 -59.999999,-26.86292 -59.999999,-60 V 373.99609 c 0,-33.13708 26.862919,-60 59.999999,-60 z"
       style="display:inline;fill:currentColor;fill-opacity:1;stroke:#ffffff;stroke-width:0;stroke-linecap:round;stroke-linejoin:round;stroke-miterlimit:4;stroke-dasharray:none;stroke-opacity:1"
       id="rect1436" />
  </g>
</svg>
